# xmcd CD database file
#
# Track frame offsets:
#	150
#	2302
#	19360
#	42733
#	60880
#	63464
#	68967
#	89697
#	106570
#	126739
#
# Disc length: 1901 seconds
#
# Revision: 1
# Processed by: cddbd v1.5.1PL0 Copyright (c) Steve Scherf et al.
# Submitted via: CDex 1.51
#
DISCID=86076b0a
DTITLE=Greenlaw Ave - Time and Energy
DYEAR=2005
DGENRE=Soul
TTITLE0=Intro
TTITLE1=Time and Energy
TTITLE2=Colour Blue
TTITLE3=All Around Me
TTITLE4=Interlude
TTITLE5=Powers That Be
TTITLE6=These Streets
TTITLE7=Just Haven't
TTITLE8=Strength
TTITLE9=Do You Feel The Same Way
EXTD=YEAR: 2005
EXTT0=
EXTT1=
EXTT2=
EXTT3=
EXTT4=
EXTT5=
EXTT6=
EXTT7=
EXTT8=
EXTT9=
PLAYORDER=
